<?xml version="1.0" encoding="UTF-8" standalone="no"?>
<!DOCTYPE svg PUBLIC "-//W3C//DTD SVG 1.1//EN"
 "http://www.w3.org/Graphics/SVG/1.1/DTD/svg11.dtd">
<!-- Generated by graphviz version 7.1.0 (20230121.1956)
 -->
<!-- Title: pastafarianism Pages: 1 -->
<svg width="1094pt" height="432pt"
 viewBox="0.00 0.00 1093.79 431.78" xmlns="http://www.w3.org/2000/svg" xmlns:xlink="http://www.w3.org/1999/xlink">
<g id="graph0" class="graph" transform="scale(1 1) rotate(0) translate(4 427.78)">
<title>pastafarianism</title>
<polygon fill="white" stroke="none" points="-4,4 -4,-427.78 1089.79,-427.78 1089.79,4 -4,4"/>
<!-- Selector -->
<g id="node1" class="node">
<title>Selector</title>
<polygon fill="cyan" stroke="black" points="790.35,-393.5 790.35,-411.2 732.38,-423.71 650.4,-423.71 592.42,-411.2 592.42,-393.5 650.4,-380.99 732.38,-380.99 790.35,-393.5"/>
<text text-anchor="middle" x="691.39" y="-405.15" font-family="Times New Roman,serif" font-size="9.00">Selector</text>
<text text-anchor="middle" x="691.39" y="-395.15" font-family="Times New Roman,serif" font-size="9.00">(py_trees.composites.Selector)</text>
</g>
<!-- Sequence -->
<g id="node2" class="node">
<title>Sequence</title>
<polygon fill="orange" stroke="black" points="666.39,-341.49 532.39,-341.49 532.39,-305.49 666.39,-305.49 666.39,-341.49"/>
<text text-anchor="middle" x="599.39" y="-326.29" font-family="Times New Roman,serif" font-size="9.00">Sequence</text>
<text text-anchor="middle" x="599.39" y="-316.29" font-family="Times New Roman,serif" font-size="9.00">(py_trees.composites.Sequence)</text>
</g>
<!-- Selector&#45;&gt;Sequence -->
<g id="edge1" class="edge">
<title>Selector&#45;&gt;Sequence</title>
<path fill="none" stroke="black" d="M666.73,-380.75C655,-370.95 640.88,-359.15 628.61,-348.9"/>
<polygon fill="black" stroke="black" points="631.14,-346.45 621.22,-342.73 626.65,-351.83 631.14,-346.45"/>
</g>
<!-- Selector** -->
<g id="node11" class="node">
<title>Selector**</title>
<polygon fill="cyan" stroke="black" points="935.35,-314.64 935.35,-332.33 877.38,-344.85 795.4,-344.85 737.42,-332.33 737.42,-314.64 795.4,-302.13 877.38,-302.13 935.35,-314.64"/>
<text text-anchor="middle" x="836.39" y="-326.29" font-family="Times New Roman,serif" font-size="9.00">Selector**</text>
<text text-anchor="middle" x="836.39" y="-316.29" font-family="Times New Roman,serif" font-size="9.00">(py_trees.composites.Selector)</text>
</g>
<!-- Selector&#45;&gt;Selector** -->
<g id="edge10" class="edge">
<title>Selector&#45;&gt;Selector**</title>
<path fill="none" stroke="black" d="M730.63,-380.55C748.04,-371.32 768.71,-360.36 787.14,-350.59"/>
<polygon fill="black" stroke="black" points="788.58,-353.79 795.78,-346.01 785.31,-347.6 788.58,-353.79"/>
</g>
<!-- Selector* -->
<g id="node3" class="node">
<title>Selector*</title>
<polygon fill="cyan" stroke="black" points="416.35,-235.78 416.35,-253.47 358.38,-265.99 276.4,-265.99 218.42,-253.47 218.42,-235.78 276.4,-223.27 358.38,-223.27 416.35,-235.78"/>
<text text-anchor="middle" x="317.39" y="-247.43" font-family="Times New Roman,serif" font-size="9.00">Selector*</text>
<text text-anchor="middle" x="317.39" y="-237.43" font-family="Times New Roman,serif" font-size="9.00">(py_trees.composites.Selector)</text>
</g>
<!-- Sequence&#45;&gt;Selector* -->
<g id="edge2" class="edge">
<title>Sequence&#45;&gt;Selector*</title>
<path fill="none" stroke="black" d="M535.4,-305.05C491.86,-293.18 434.2,-277.46 389.11,-265.17"/>
<polygon fill="black" stroke="black" points="390.25,-261.86 379.69,-262.61 388.41,-268.61 390.25,-261.86"/>
</g>
<!-- Clear Road -->
<g id="node9" class="node">
<title>Clear Road</title>
<ellipse fill="gray" stroke="black" cx="519.39" cy="-244.63" rx="67.76" ry="19.6"/>
<text text-anchor="middle" x="519.39" y="-247.43" font-family="Times New Roman,serif" font-size="9.00">Clear Road</text>
<text text-anchor="middle" x="519.39" y="-237.43" font-family="Times New Roman,serif" font-size="9.00">(__main__.Condition)</text>
</g>
<!-- Sequence&#45;&gt;Clear Road -->
<g id="edge8" class="edge">
<title>Sequence&#45;&gt;Clear Road</title>
<path fill="none" stroke="black" d="M581.24,-305.05C570.92,-295.14 557.81,-282.54 546.32,-271.5"/>
<polygon fill="black" stroke="black" points="549.03,-269.25 539.4,-264.85 544.18,-274.3 549.03,-269.25"/>
</g>
<!-- Free Ride -->
<g id="node10" class="node">
<title>Free Ride</title>
<ellipse fill="gray" stroke="black" cx="665.39" cy="-244.63" rx="60.21" ry="19.6"/>
<text text-anchor="middle" x="665.39" y="-247.43" font-family="Times New Roman,serif" font-size="9.00">Free Ride</text>
<text text-anchor="middle" x="665.39" y="-237.43" font-family="Times New Roman,serif" font-size="9.00">(__main__.Action)</text>
</g>
<!-- Sequence&#45;&gt;Free Ride -->
<g id="edge9" class="edge">
<title>Sequence&#45;&gt;Free Ride</title>
<path fill="none" stroke="black" d="M614.36,-305.05C622.63,-295.43 633.06,-283.28 642.34,-272.47"/>
<polygon fill="black" stroke="black" points="644.94,-274.82 648.8,-264.95 639.63,-270.25 644.94,-274.82"/>
</g>
<!-- Inverter -->
<g id="node4" class="node">
<title>Inverter</title>
<ellipse fill="ghostwhite" stroke="black" cx="88.39" cy="-167.4" rx="88.28" ry="19.6"/>
<text text-anchor="middle" x="88.39" y="-170.2" font-family="Times New Roman,serif" font-size="9.00">Inverter</text>
<text text-anchor="middle" x="88.39" y="-160.2" font-family="Times New Roman,serif" font-size="9.00">(py_trees.decorators.Inverter)</text>
</g>
<!-- Selector*&#45;&gt;Inverter -->
<g id="edge3" class="edge">
<title>Selector*&#45;&gt;Inverter</title>
<path fill="none" stroke="black" d="M262.83,-225.7C227.94,-214.24 182.71,-199.38 147.05,-187.67"/>
<polygon fill="black" stroke="black" points="148.35,-184.41 137.75,-184.61 146.16,-191.06 148.35,-184.41"/>
</g>
<!-- Inverter* -->
<g id="node6" class="node">
<title>Inverter*</title>
<ellipse fill="ghostwhite" stroke="black" cx="283.39" cy="-167.4" rx="88.28" ry="19.6"/>
<text text-anchor="middle" x="283.39" y="-170.2" font-family="Times New Roman,serif" font-size="9.00">Inverter*</text>
<text text-anchor="middle" x="283.39" y="-160.2" font-family="Times New Roman,serif" font-size="9.00">(py_trees.decorators.Inverter)</text>
</g>
<!-- Selector*&#45;&gt;Inverter* -->
<g id="edge5" class="edge">
<title>Selector*&#45;&gt;Inverter*</title>
<path fill="none" stroke="black" d="M308.1,-223.07C304.56,-215.24 300.45,-206.16 296.62,-197.67"/>
<polygon fill="black" stroke="black" points="299.9,-196.43 292.59,-188.76 293.52,-199.31 299.9,-196.43"/>
</g>
<!-- Lane Change Right -->
<g id="node8" class="node">
<title>Lane Change Right</title>
<ellipse fill="gray" stroke="black" cx="449.39" cy="-167.4" rx="60.21" ry="19.6"/>
<text text-anchor="middle" x="449.39" y="-170.2" font-family="Times New Roman,serif" font-size="9.00">Lane Change Right</text>
<text text-anchor="middle" x="449.39" y="-160.2" font-family="Times New Roman,serif" font-size="9.00">(__main__.Action)</text>
</g>
<!-- Selector*&#45;&gt;Lane Change Right -->
<g id="edge7" class="edge">
<title>Selector*&#45;&gt;Lane Change Right</title>
<path fill="none" stroke="black" d="M353.81,-222.87C371.5,-212.79 392.76,-200.67 410.73,-190.43"/>
<polygon fill="black" stroke="black" points="412.34,-193.54 419.3,-185.55 408.88,-187.46 412.34,-193.54"/>
</g>
<!-- Vehicle Approaching -->
<g id="node5" class="node">
<title>Vehicle Approaching</title>
<ellipse fill="gray" stroke="black" cx="88.39" cy="-91.8" rx="67.76" ry="19.6"/>
<text text-anchor="middle" x="88.39" y="-94.6" font-family="Times New Roman,serif" font-size="9.00">Vehicle Approaching</text>
<text text-anchor="middle" x="88.39" y="-84.6" font-family="Times New Roman,serif" font-size="9.00">(__main__.Condition)</text>
</g>
<!-- Inverter&#45;&gt;Vehicle Approaching -->
<g id="edge4" class="edge">
<title>Inverter&#45;&gt;Vehicle Approaching</title>
<path fill="none" stroke="black" d="M88.39,-147.44C88.39,-139.97 88.39,-131.21 88.39,-122.92"/>
<polygon fill="black" stroke="black" points="91.89,-123.2 88.39,-113.2 84.89,-123.2 91.89,-123.2"/>
</g>
<!-- Right Lane Free -->
<g id="node7" class="node">
<title>Right Lane Free</title>
<ellipse fill="gray" stroke="black" cx="283.39" cy="-91.8" rx="67.76" ry="19.6"/>
<text text-anchor="middle" x="283.39" y="-94.6" font-family="Times New Roman,serif" font-size="9.00">Right Lane Free</text>
<text text-anchor="middle" x="283.39" y="-84.6" font-family="Times New Roman,serif" font-size="9.00">(__main__.Condition)</text>
</g>
<!-- Inverter*&#45;&gt;Right Lane Free -->
<g id="edge6" class="edge">
<title>Inverter*&#45;&gt;Right Lane Free</title>
<path fill="none" stroke="black" d="M283.39,-147.44C283.39,-139.97 283.39,-131.21 283.39,-122.92"/>
<polygon fill="black" stroke="black" points="286.89,-123.2 283.39,-113.2 279.89,-123.2 286.89,-123.2"/>
</g>
<!-- /new_goal_pos -->
<g id="node17" class="node">
<title>/new_goal_pos</title>
<polygon fill="white" stroke="blue" points="379.89,-26.5 302.89,-26.5 302.89,-9.5 379.89,-9.5 379.89,-26.5"/>
<text text-anchor="middle" x="341.39" y="-16.1" font-family="Times New Roman,serif" font-size="8.00" fill="blue">/new_goal_pos: 0</text>
</g>
<!-- Lane Change Right&#45;&gt;/new_goal_pos -->
<g id="edge17" class="edge">
<title>Lane Change Right&#45;&gt;/new_goal_pos</title>
<path fill="none" stroke="blue" d="M435.93,-148.03C414.87,-119.29 374.43,-64.09 353.94,-36.13"/>
<polygon fill="blue" stroke="blue" points="356.78,-34.08 348.04,-28.08 351.13,-38.22 356.78,-34.08"/>
</g>
<!-- Free Ride&#45;&gt;/new_goal_pos -->
<g id="edge16" class="edge">
<title>Free Ride&#45;&gt;/new_goal_pos</title>
<path fill="none" stroke="blue" d="M655.12,-224.9C634.68,-189.44 585.4,-112.41 522.39,-72 470.84,-38.94 447.85,-54.24 389.39,-36 384.18,-34.37 378.69,-32.54 373.36,-30.7"/>
<polygon fill="blue" stroke="blue" points="374.8,-27.5 364.2,-27.47 372.47,-34.1 374.8,-27.5"/>
</g>
<!-- Sequence* -->
<g id="node12" class="node">
<title>Sequence*</title>
<polygon fill="orange" stroke="black" points="903.39,-262.63 769.39,-262.63 769.39,-226.63 903.39,-226.63 903.39,-262.63"/>
<text text-anchor="middle" x="836.39" y="-247.43" font-family="Times New Roman,serif" font-size="9.00">Sequence*</text>
<text text-anchor="middle" x="836.39" y="-237.43" font-family="Times New Roman,serif" font-size="9.00">(py_trees.composites.Sequence)</text>
</g>
<!-- Selector**&#45;&gt;Sequence* -->
<g id="edge11" class="edge">
<title>Selector**&#45;&gt;Sequence*</title>
<path fill="none" stroke="black" d="M836.39,-301.89C836.39,-293.42 836.39,-283.46 836.39,-274.3"/>
<polygon fill="black" stroke="black" points="839.89,-274.41 836.39,-264.41 832.89,-274.41 839.89,-274.41"/>
</g>
<!-- Follow -->
<g id="node16" class="node">
<title>Follow</title>
<ellipse fill="gray" stroke="black" cx="981.39" cy="-244.63" rx="60.21" ry="19.6"/>
<text text-anchor="middle" x="981.39" y="-247.43" font-family="Times New Roman,serif" font-size="9.00">Follow</text>
<text text-anchor="middle" x="981.39" y="-237.43" font-family="Times New Roman,serif" font-size="9.00">(__main__.Action)</text>
</g>
<!-- Selector**&#45;&gt;Follow -->
<g id="edge15" class="edge">
<title>Selector**&#45;&gt;Follow</title>
<path fill="none" stroke="black" d="M875.63,-301.69C895.86,-290.96 920.51,-277.9 940.92,-267.08"/>
<polygon fill="black" stroke="black" points="942.32,-270.3 949.52,-262.52 939.04,-264.11 942.32,-270.3"/>
</g>
<!-- Slow Vehicle -->
<g id="node13" class="node">
<title>Slow Vehicle</title>
<ellipse fill="gray" stroke="black" cx="709.39" cy="-167.4" rx="67.76" ry="19.6"/>
<text text-anchor="middle" x="709.39" y="-170.2" font-family="Times New Roman,serif" font-size="9.00">Slow Vehicle</text>
<text text-anchor="middle" x="709.39" y="-160.2" font-family="Times New Roman,serif" font-size="9.00">(__main__.Condition)</text>
</g>
<!-- Sequence*&#45;&gt;Slow Vehicle -->
<g id="edge12" class="edge">
<title>Sequence*&#45;&gt;Slow Vehicle</title>
<path fill="none" stroke="black" d="M806.93,-226.18C789.42,-215.8 766.99,-202.52 748.07,-191.31"/>
<polygon fill="black" stroke="black" points="749.94,-188.35 739.55,-186.26 746.37,-194.37 749.94,-188.35"/>
</g>
<!-- Left Lane Free -->
<g id="node14" class="node">
<title>Left Lane Free</title>
<ellipse fill="gray" stroke="black" cx="863.39" cy="-167.4" rx="67.76" ry="19.6"/>
<text text-anchor="middle" x="863.39" y="-170.2" font-family="Times New Roman,serif" font-size="9.00">Left Lane Free</text>
<text text-anchor="middle" x="863.39" y="-160.2" font-family="Times New Roman,serif" font-size="9.00">(__main__.Condition)</text>
</g>
<!-- Sequence*&#45;&gt;Left Lane Free -->
<g id="edge13" class="edge">
<title>Sequence*&#45;&gt;Left Lane Free</title>
<path fill="none" stroke="black" d="M842.65,-226.18C845.65,-217.82 849.33,-207.57 852.75,-198.04"/>
<polygon fill="black" stroke="black" points="856,-199.35 856.08,-188.76 849.41,-196.99 856,-199.35"/>
</g>
<!-- Lane Change Left -->
<g id="node15" class="node">
<title>Lane Change Left</title>
<ellipse fill="gray" stroke="black" cx="1009.39" cy="-167.4" rx="60.21" ry="19.6"/>
<text text-anchor="middle" x="1009.39" y="-170.2" font-family="Times New Roman,serif" font-size="9.00">Lane Change Left</text>
<text text-anchor="middle" x="1009.39" y="-160.2" font-family="Times New Roman,serif" font-size="9.00">(__main__.Action)</text>
</g>
<!-- Sequence*&#45;&gt;Lane Change Left -->
<g id="edge14" class="edge">
<title>Sequence*&#45;&gt;Lane Change Left</title>
<path fill="none" stroke="black" d="M876.51,-226.18C902.6,-214.84 936.67,-200.02 963.78,-188.23"/>
<polygon fill="black" stroke="black" points="965.01,-191.51 972.78,-184.31 962.22,-185.09 965.01,-191.51"/>
</g>
<!-- Lane Change Left&#45;&gt;/new_goal_pos -->
<g id="edge20" class="edge">
<title>Lane Change Left&#45;&gt;/new_goal_pos</title>
<path fill="none" stroke="blue" d="M981.07,-149.69C942.24,-127.68 869.61,-89.7 802.39,-72 624.21,-25.1 569.45,-75.07 389.39,-36 383.23,-34.66 376.79,-32.76 370.69,-30.7"/>
<polygon fill="blue" stroke="blue" points="372.24,-27.53 361.64,-27.43 369.86,-34.12 372.24,-27.53"/>
</g>
<!-- Follow&#45;&gt;/new_goal_pos -->
<g id="edge19" class="edge">
<title>Follow&#45;&gt;/new_goal_pos</title>
<path fill="none" stroke="blue" d="M1023.81,-230.26C1044.14,-221.47 1066.59,-207.72 1078.39,-187.2 1087.16,-171.94 1089.05,-161.6 1078.39,-147.6 984.42,-24.19 540.97,-68.86 389.39,-36 383.23,-34.67 376.78,-32.76 370.69,-30.7"/>
<polygon fill="blue" stroke="blue" points="372.24,-27.54 361.64,-27.43 369.86,-34.12 372.24,-27.54"/>
</g>
<!-- Setup -->
<g id="node18" class="node">
<title>Setup</title>
<ellipse fill="gray" stroke="blue" cx="425.39" cy="-18" rx="27" ry="18"/>
<text text-anchor="middle" x="425.39" y="-16.4" font-family="Times New Roman,serif" font-size="7.00" fill="blue">Setup</text>
</g>
<!-- Setup&#45;&gt;/new_goal_pos -->
<g id="edge18" class="edge">
<title>Setup&#45;&gt;/new_goal_pos</title>
<path fill="none" stroke="blue" d="M398.15,-18C395.89,-18 393.64,-18 391.38,-18"/>
<polygon fill="blue" stroke="blue" points="391.62,-14.5 381.62,-18 391.62,-21.5 391.62,-14.5"/>
</g>
<!-- /agent -->
<g id="node19" class="node">
<title>/agent</title>
<polygon fill="white" stroke="blue" points="230.89,-26.5 127.89,-26.5 127.89,-9.5 230.89,-9.5 230.89,-26.5"/>
<text text-anchor="middle" x="179.39" y="-16.1" font-family="Times New Roman,serif" font-size="8.00" fill="blue">/agent: {&#39;goal_pos&#39;: [0, ...</text>
</g>
<!-- Setup&#45;&gt;/agent -->
<g id="edge30" class="edge">
<title>Setup&#45;&gt;/agent</title>
<path fill="none" stroke="blue" d="M410.79,-33.57C402.44,-41.33 391.28,-49.9 379.39,-54 320.07,-74.45 246.63,-49.11 207.33,-31.73"/>
<polygon fill="blue" stroke="blue" points="208.89,-28.59 198.34,-27.61 205.97,-34.96 208.89,-28.59"/>
</g>
<!-- /agent&#45;&gt;Vehicle Approaching -->
<g id="edge23" class="edge">
<title>/agent&#45;&gt;Vehicle Approaching</title>
<path fill="none" stroke="green" d="M169.4,-26.88C157.5,-36.27 137.02,-52.43 119.63,-66.15"/>
<polygon fill="green" stroke="green" points="117.75,-63.17 112.07,-72.11 122.09,-68.67 117.75,-63.17"/>
</g>
<!-- /agent&#45;&gt;Right Lane Free -->
<g id="edge27" class="edge">
<title>/agent&#45;&gt;Right Lane Free</title>
<path fill="none" stroke="green" d="M190.86,-26.92C204.66,-36.45 228.48,-52.89 248.49,-66.71"/>
<polygon fill="green" stroke="green" points="246.48,-69.57 256.7,-72.38 250.46,-63.81 246.48,-69.57"/>
</g>
<!-- /agent&#45;&gt;Lane Change Right -->
<g id="edge22" class="edge">
<title>/agent&#45;&gt;Lane Change Right</title>
<path fill="none" stroke="green" d="M231.12,-26.64C269.03,-33.96 320.61,-47.62 360.39,-72 388.53,-89.25 413.62,-117.69 429.93,-138.85"/>
<polygon fill="green" stroke="green" points="427.08,-140.88 435.88,-146.78 432.68,-136.68 427.08,-140.88"/>
</g>
<!-- /agent&#45;&gt;Clear Road -->
<g id="edge28" class="edge">
<title>/agent&#45;&gt;Clear Road</title>
<path fill="none" stroke="green" d="M231.08,-26.76C276.2,-34.65 342.82,-49.03 397.39,-72 455.83,-96.6 487.36,-92.3 518.39,-147.6 529.59,-167.56 529.06,-193.73 526.17,-213.7"/>
<polygon fill="green" stroke="green" points="522.74,-213 524.46,-223.45 529.63,-214.21 522.74,-213"/>
</g>
<!-- /agent&#45;&gt;Free Ride -->
<g id="edge21" class="edge">
<title>/agent&#45;&gt;Free Ride</title>
<path fill="none" stroke="green" d="M228.62,-26.98C303.08,-39.25 437.9,-62.35 458.39,-72 534.76,-107.95 606.52,-178.74 642.08,-217.22"/>
<polygon fill="green" stroke="green" points="639.17,-219.22 648.49,-224.25 644.34,-214.5 639.17,-219.22"/>
</g>
<!-- /agent&#45;&gt;Slow Vehicle -->
<g id="edge24" class="edge">
<title>/agent&#45;&gt;Slow Vehicle</title>
<path fill="none" stroke="green" d="M230.12,-26.99C249.85,-29.98 272.65,-33.31 293.39,-36 437.95,-54.75 488.75,-7.34 619.39,-72 649.62,-86.96 675.14,-116.47 691.2,-138.53"/>
<polygon fill="green" stroke="green" points="688.2,-140.36 696.82,-146.53 693.93,-136.34 688.2,-140.36"/>
</g>
<!-- /agent&#45;&gt;Left Lane Free -->
<g id="edge29" class="edge">
<title>/agent&#45;&gt;Left Lane Free</title>
<path fill="none" stroke="green" d="M229.26,-26.99C249.17,-30.03 272.34,-33.39 293.39,-36 455.16,-56.03 501.07,-29.32 658.39,-72 719.09,-88.47 784.27,-121.4 824.45,-143.67"/>
<polygon fill="green" stroke="green" points="822.6,-146.65 833.03,-148.49 826.02,-140.54 822.6,-146.65"/>
</g>
<!-- /agent&#45;&gt;Lane Change Left -->
<g id="edge26" class="edge">
<title>/agent&#45;&gt;Lane Change Left</title>
<path fill="none" stroke="green" d="M228.11,-26.97C248.28,-30.09 271.92,-33.5 293.39,-36 483.88,-58.15 535.48,-33.68 723.39,-72 809.84,-89.63 906.59,-125.03 962.5,-147.12"/>
<polygon fill="green" stroke="green" points="961.13,-150.34 971.71,-150.79 963.72,-143.84 961.13,-150.34"/>
</g>
<!-- /agent&#45;&gt;Follow -->
<g id="edge25" class="edge">
<title>/agent&#45;&gt;Follow</title>
<path fill="none" stroke="green" d="M227.26,-26.98C247.6,-30.16 271.61,-33.61 293.39,-36 368.13,-44.19 983.02,-22.35 1078.39,-147.6 1089.05,-161.6 1087.16,-171.94 1078.39,-187.2 1068.52,-204.35 1051.22,-216.77 1033.93,-225.52"/>
<polygon fill="green" stroke="green" points="1032.75,-222.21 1025.18,-229.61 1035.72,-228.55 1032.75,-222.21"/>
</g>
</g>
</svg>
