<?xml version="1.0" encoding="UTF-8" standalone="no"?>
<!DOCTYPE svg PUBLIC "-//W3C//DTD SVG 1.1//EN"
 "http://www.w3.org/Graphics/SVG/1.1/DTD/svg11.dtd">
<!-- Generated by graphviz version 7.1.0 (20230121.1956)
 -->
<!-- Title: pastafarianism Pages: 1 -->
<svg width="1080pt" height="432pt"
 viewBox="0.00 0.00 1079.60 431.78" xmlns="http://www.w3.org/2000/svg" xmlns:xlink="http://www.w3.org/1999/xlink">
<g id="graph0" class="graph" transform="scale(1 1) rotate(0) translate(4 427.78)">
<title>pastafarianism</title>
<polygon fill="white" stroke="none" points="-4,4 -4,-427.78 1075.6,-427.78 1075.6,4 -4,4"/>
<!-- Selector -->
<g id="node1" class="node">
<title>Selector</title>
<polygon fill="cyan" stroke="black" points="653.03,-393.5 653.03,-411.2 595.06,-423.71 513.07,-423.71 455.1,-411.2 455.1,-393.5 513.07,-380.99 595.06,-380.99 653.03,-393.5"/>
<text text-anchor="middle" x="554.06" y="-405.15" font-family="Times New Roman,serif" font-size="9.00">Selector</text>
<text text-anchor="middle" x="554.06" y="-395.15" font-family="Times New Roman,serif" font-size="9.00">(py_trees.composites.Selector)</text>
</g>
<!-- Sequence -->
<g id="node2" class="node">
<title>Sequence</title>
<polygon fill="orange" stroke="black" points="529.06,-341.49 395.06,-341.49 395.06,-305.49 529.06,-305.49 529.06,-341.49"/>
<text text-anchor="middle" x="462.06" y="-326.29" font-family="Times New Roman,serif" font-size="9.00">Sequence</text>
<text text-anchor="middle" x="462.06" y="-316.29" font-family="Times New Roman,serif" font-size="9.00">(py_trees.composites.Sequence)</text>
</g>
<!-- Selector&#45;&gt;Sequence -->
<g id="edge1" class="edge">
<title>Selector&#45;&gt;Sequence</title>
<path fill="none" stroke="black" d="M529.41,-380.75C517.67,-370.95 503.56,-359.15 491.28,-348.9"/>
<polygon fill="black" stroke="black" points="493.82,-346.45 483.9,-342.73 489.33,-351.83 493.82,-346.45"/>
</g>
<!-- Selector** -->
<g id="node11" class="node">
<title>Selector**</title>
<polygon fill="cyan" stroke="black" points="814.03,-314.64 814.03,-332.33 756.06,-344.85 674.07,-344.85 616.1,-332.33 616.1,-314.64 674.07,-302.13 756.06,-302.13 814.03,-314.64"/>
<text text-anchor="middle" x="715.06" y="-326.29" font-family="Times New Roman,serif" font-size="9.00">Selector**</text>
<text text-anchor="middle" x="715.06" y="-316.29" font-family="Times New Roman,serif" font-size="9.00">(py_trees.composites.Selector)</text>
</g>
<!-- Selector&#45;&gt;Selector** -->
<g id="edge10" class="edge">
<title>Selector&#45;&gt;Selector**</title>
<path fill="none" stroke="black" d="M596.78,-380.95C616.88,-371.36 641.04,-359.83 662.26,-349.69"/>
<polygon fill="black" stroke="black" points="663.54,-352.96 671.05,-345.5 660.52,-346.65 663.54,-352.96"/>
</g>
<!-- Clear Road -->
<g id="node3" class="node">
<title>Clear Road</title>
<ellipse fill="gray" stroke="black" cx="175.06" cy="-244.63" rx="67.76" ry="19.6"/>
<text text-anchor="middle" x="175.06" y="-247.43" font-family="Times New Roman,serif" font-size="9.00">Clear Road</text>
<text text-anchor="middle" x="175.06" y="-237.43" font-family="Times New Roman,serif" font-size="9.00">(__main__.Condition)</text>
</g>
<!-- Sequence&#45;&gt;Clear Road -->
<g id="edge2" class="edge">
<title>Sequence&#45;&gt;Clear Road</title>
<path fill="none" stroke="black" d="M396.94,-305.05C348.1,-291.97 281.78,-274.21 234.4,-261.52"/>
<polygon fill="black" stroke="black" points="235.41,-258.17 224.85,-258.96 233.6,-264.93 235.41,-258.17"/>
</g>
<!-- Selector* -->
<g id="node4" class="node">
<title>Selector*</title>
<polygon fill="cyan" stroke="black" points="459.03,-235.78 459.03,-253.47 401.06,-265.99 319.07,-265.99 261.1,-253.47 261.1,-235.78 319.07,-223.27 401.06,-223.27 459.03,-235.78"/>
<text text-anchor="middle" x="360.06" y="-247.43" font-family="Times New Roman,serif" font-size="9.00">Selector*</text>
<text text-anchor="middle" x="360.06" y="-237.43" font-family="Times New Roman,serif" font-size="9.00">(py_trees.composites.Selector)</text>
</g>
<!-- Sequence&#45;&gt;Selector* -->
<g id="edge3" class="edge">
<title>Sequence&#45;&gt;Selector*</title>
<path fill="none" stroke="black" d="M438.92,-305.05C426.38,-295.6 410.61,-283.71 396.46,-273.06"/>
<polygon fill="black" stroke="black" points="398.76,-270.4 388.67,-267.18 394.55,-276 398.76,-270.4"/>
</g>
<!-- Free Ride -->
<g id="node10" class="node">
<title>Free Ride</title>
<ellipse fill="gray" stroke="black" cx="537.06" cy="-244.63" rx="60.21" ry="19.6"/>
<text text-anchor="middle" x="537.06" y="-247.43" font-family="Times New Roman,serif" font-size="9.00">Free Ride</text>
<text text-anchor="middle" x="537.06" y="-237.43" font-family="Times New Roman,serif" font-size="9.00">(__main__.Action)</text>
</g>
<!-- Sequence&#45;&gt;Free Ride -->
<g id="edge9" class="edge">
<title>Sequence&#45;&gt;Free Ride</title>
<path fill="none" stroke="black" d="M479.08,-305.05C488.66,-295.23 500.8,-282.79 511.5,-271.83"/>
<polygon fill="black" stroke="black" points="513.79,-274.48 518.27,-264.88 508.78,-269.6 513.79,-274.48"/>
</g>
<!-- Inverter -->
<g id="node5" class="node">
<title>Inverter</title>
<ellipse fill="ghostwhite" stroke="black" cx="110.06" cy="-167.4" rx="88.28" ry="19.6"/>
<text text-anchor="middle" x="110.06" y="-170.2" font-family="Times New Roman,serif" font-size="9.00">Inverter</text>
<text text-anchor="middle" x="110.06" y="-160.2" font-family="Times New Roman,serif" font-size="9.00">(py_trees.decorators.Inverter)</text>
</g>
<!-- Selector*&#45;&gt;Inverter -->
<g id="edge4" class="edge">
<title>Selector*&#45;&gt;Inverter</title>
<path fill="none" stroke="black" d="M302.71,-226.37C263.7,-214.63 212.13,-199.11 172.16,-187.08"/>
<polygon fill="black" stroke="black" points="173.24,-183.75 162.66,-184.22 171.23,-190.46 173.24,-183.75"/>
</g>
<!-- Inverter* -->
<g id="node7" class="node">
<title>Inverter*</title>
<ellipse fill="ghostwhite" stroke="black" cx="305.06" cy="-167.4" rx="88.28" ry="19.6"/>
<text text-anchor="middle" x="305.06" y="-170.2" font-family="Times New Roman,serif" font-size="9.00">Inverter*</text>
<text text-anchor="middle" x="305.06" y="-160.2" font-family="Times New Roman,serif" font-size="9.00">(py_trees.decorators.Inverter)</text>
</g>
<!-- Selector*&#45;&gt;Inverter* -->
<g id="edge6" class="edge">
<title>Selector*&#45;&gt;Inverter*</title>
<path fill="none" stroke="black" d="M345.03,-223.07C339.01,-214.83 331.97,-205.2 325.49,-196.34"/>
<polygon fill="black" stroke="black" points="328.38,-194.35 319.65,-188.35 322.72,-198.49 328.38,-194.35"/>
</g>
<!-- Lane Change Right -->
<g id="node9" class="node">
<title>Lane Change Right</title>
<ellipse fill="gray" stroke="black" cx="471.06" cy="-167.4" rx="60.21" ry="19.6"/>
<text text-anchor="middle" x="471.06" y="-170.2" font-family="Times New Roman,serif" font-size="9.00">Lane Change Right</text>
<text text-anchor="middle" x="471.06" y="-160.2" font-family="Times New Roman,serif" font-size="9.00">(__main__.Action)</text>
</g>
<!-- Selector*&#45;&gt;Lane Change Right -->
<g id="edge8" class="edge">
<title>Selector*&#45;&gt;Lane Change Right</title>
<path fill="none" stroke="black" d="M390.69,-222.87C404.9,-213.24 421.86,-201.75 436.52,-191.8"/>
<polygon fill="black" stroke="black" points="438.21,-194.89 444.53,-186.38 434.29,-189.09 438.21,-194.89"/>
</g>
<!-- Vehicle Approaching -->
<g id="node6" class="node">
<title>Vehicle Approaching</title>
<ellipse fill="gray" stroke="black" cx="110.06" cy="-91.8" rx="67.76" ry="19.6"/>
<text text-anchor="middle" x="110.06" y="-94.6" font-family="Times New Roman,serif" font-size="9.00">Vehicle Approaching</text>
<text text-anchor="middle" x="110.06" y="-84.6" font-family="Times New Roman,serif" font-size="9.00">(__main__.Condition)</text>
</g>
<!-- Inverter&#45;&gt;Vehicle Approaching -->
<g id="edge5" class="edge">
<title>Inverter&#45;&gt;Vehicle Approaching</title>
<path fill="none" stroke="black" d="M110.06,-147.44C110.06,-139.97 110.06,-131.21 110.06,-122.92"/>
<polygon fill="black" stroke="black" points="113.56,-123.2 110.06,-113.2 106.56,-123.2 113.56,-123.2"/>
</g>
<!-- Right Lane Free -->
<g id="node8" class="node">
<title>Right Lane Free</title>
<ellipse fill="gray" stroke="black" cx="305.06" cy="-91.8" rx="67.76" ry="19.6"/>
<text text-anchor="middle" x="305.06" y="-94.6" font-family="Times New Roman,serif" font-size="9.00">Right Lane Free</text>
<text text-anchor="middle" x="305.06" y="-84.6" font-family="Times New Roman,serif" font-size="9.00">(__main__.Condition)</text>
</g>
<!-- Inverter*&#45;&gt;Right Lane Free -->
<g id="edge7" class="edge">
<title>Inverter*&#45;&gt;Right Lane Free</title>
<path fill="none" stroke="black" d="M305.06,-147.44C305.06,-139.97 305.06,-131.21 305.06,-122.92"/>
<polygon fill="black" stroke="black" points="308.56,-123.2 305.06,-113.2 301.56,-123.2 308.56,-123.2"/>
</g>
<!-- /new_goal_pos -->
<g id="node17" class="node">
<title>/new_goal_pos</title>
<polygon fill="white" stroke="blue" points="327.56,-26.5 250.56,-26.5 250.56,-9.5 327.56,-9.5 327.56,-26.5"/>
<text text-anchor="middle" x="289.06" y="-16.1" font-family="Times New Roman,serif" font-size="8.00" fill="blue">/new_goal_pos: 0</text>
</g>
<!-- Lane Change Right&#45;&gt;/new_goal_pos -->
<g id="edge16" class="edge">
<title>Lane Change Right&#45;&gt;/new_goal_pos</title>
<path fill="none" stroke="blue" d="M456.69,-148.17C440.15,-127.94 411.45,-95.11 382.06,-72 361.7,-55.98 335.93,-41.69 316.69,-32"/>
<polygon fill="blue" stroke="blue" points="318.35,-28.92 307.83,-27.64 315.26,-35.2 318.35,-28.92"/>
</g>
<!-- Free Ride&#45;&gt;/new_goal_pos -->
<g id="edge20" class="edge">
<title>Free Ride&#45;&gt;/new_goal_pos</title>
<path fill="none" stroke="blue" d="M542.97,-224.98C548.27,-204.62 553.36,-171.69 540.06,-147.6 517.13,-106.05 384.99,-53.68 322.2,-30.71"/>
<polygon fill="blue" stroke="blue" points="323.69,-27.53 313.1,-27.41 321.31,-34.11 323.69,-27.53"/>
</g>
<!-- Sequence* -->
<g id="node12" class="node">
<title>Sequence*</title>
<polygon fill="orange" stroke="black" points="782.06,-262.63 648.06,-262.63 648.06,-226.63 782.06,-226.63 782.06,-262.63"/>
<text text-anchor="middle" x="715.06" y="-247.43" font-family="Times New Roman,serif" font-size="9.00">Sequence*</text>
<text text-anchor="middle" x="715.06" y="-237.43" font-family="Times New Roman,serif" font-size="9.00">(py_trees.composites.Sequence)</text>
</g>
<!-- Selector**&#45;&gt;Sequence* -->
<g id="edge11" class="edge">
<title>Selector**&#45;&gt;Sequence*</title>
<path fill="none" stroke="black" d="M715.06,-301.89C715.06,-293.42 715.06,-283.46 715.06,-274.3"/>
<polygon fill="black" stroke="black" points="718.56,-274.41 715.06,-264.41 711.56,-274.41 718.56,-274.41"/>
</g>
<!-- Follow -->
<g id="node16" class="node">
<title>Follow</title>
<ellipse fill="gray" stroke="black" cx="860.06" cy="-244.63" rx="60.21" ry="19.6"/>
<text text-anchor="middle" x="860.06" y="-247.43" font-family="Times New Roman,serif" font-size="9.00">Follow</text>
<text text-anchor="middle" x="860.06" y="-237.43" font-family="Times New Roman,serif" font-size="9.00">(__main__.Action)</text>
</g>
<!-- Selector**&#45;&gt;Follow -->
<g id="edge15" class="edge">
<title>Selector**&#45;&gt;Follow</title>
<path fill="none" stroke="black" d="M754.3,-301.69C774.53,-290.96 799.18,-277.9 819.59,-267.08"/>
<polygon fill="black" stroke="black" points="821,-270.3 828.19,-262.52 817.72,-264.11 821,-270.3"/>
</g>
<!-- Slow Vehicle -->
<g id="node13" class="node">
<title>Slow Vehicle</title>
<ellipse fill="gray" stroke="black" cx="693.06" cy="-167.4" rx="67.76" ry="19.6"/>
<text text-anchor="middle" x="693.06" y="-170.2" font-family="Times New Roman,serif" font-size="9.00">Slow Vehicle</text>
<text text-anchor="middle" x="693.06" y="-160.2" font-family="Times New Roman,serif" font-size="9.00">(__main__.Condition)</text>
</g>
<!-- Sequence*&#45;&gt;Slow Vehicle -->
<g id="edge12" class="edge">
<title>Sequence*&#45;&gt;Slow Vehicle</title>
<path fill="none" stroke="black" d="M709.96,-226.18C707.54,-217.91 704.58,-207.79 701.82,-198.35"/>
<polygon fill="black" stroke="black" points="705.19,-197.4 699.02,-188.78 698.47,-199.37 705.19,-197.4"/>
</g>
<!-- Left Lane Free -->
<g id="node14" class="node">
<title>Left Lane Free</title>
<ellipse fill="gray" stroke="black" cx="847.06" cy="-167.4" rx="67.76" ry="19.6"/>
<text text-anchor="middle" x="847.06" y="-170.2" font-family="Times New Roman,serif" font-size="9.00">Left Lane Free</text>
<text text-anchor="middle" x="847.06" y="-160.2" font-family="Times New Roman,serif" font-size="9.00">(__main__.Condition)</text>
</g>
<!-- Sequence*&#45;&gt;Left Lane Free -->
<g id="edge13" class="edge">
<title>Sequence*&#45;&gt;Left Lane Free</title>
<path fill="none" stroke="black" d="M745.68,-226.18C764.1,-215.68 787.74,-202.21 807.55,-190.91"/>
<polygon fill="black" stroke="black" points="809.25,-193.97 816.21,-185.98 805.78,-187.89 809.25,-193.97"/>
</g>
<!-- Lane Change Left -->
<g id="node15" class="node">
<title>Lane Change Left</title>
<ellipse fill="gray" stroke="black" cx="993.06" cy="-167.4" rx="60.21" ry="19.6"/>
<text text-anchor="middle" x="993.06" y="-170.2" font-family="Times New Roman,serif" font-size="9.00">Lane Change Left</text>
<text text-anchor="middle" x="993.06" y="-160.2" font-family="Times New Roman,serif" font-size="9.00">(__main__.Action)</text>
</g>
<!-- Sequence*&#45;&gt;Lane Change Left -->
<g id="edge14" class="edge">
<title>Sequence*&#45;&gt;Lane Change Left</title>
<path fill="none" stroke="black" d="M779.57,-226.25C820.88,-215.11 875.64,-200.33 924.06,-187.2 928.26,-186.06 932.59,-184.88 936.96,-183.69"/>
<polygon fill="black" stroke="black" points="937.59,-187.15 946.32,-181.15 935.76,-180.39 937.59,-187.15"/>
</g>
<!-- Lane Change Left&#45;&gt;/new_goal_pos -->
<g id="edge17" class="edge">
<title>Lane Change Left&#45;&gt;/new_goal_pos</title>
<path fill="none" stroke="blue" d="M964.8,-149.82C925.67,-127.77 852.11,-89.54 784.06,-72 591.06,-22.25 531.98,-77.62 337.06,-36 330.9,-34.68 324.45,-32.78 318.35,-30.73"/>
<polygon fill="blue" stroke="blue" points="319.9,-27.57 309.31,-27.46 317.53,-34.15 319.9,-27.57"/>
</g>
<!-- Follow&#45;&gt;/new_goal_pos -->
<g id="edge18" class="edge">
<title>Follow&#45;&gt;/new_goal_pos</title>
<path fill="none" stroke="blue" d="M916.85,-237.6C990.21,-227.49 1103.82,-202.55 1062.06,-147.6 974.41,-32.26 363.9,-41.72 337.06,-36 330.9,-34.69 324.45,-32.79 318.35,-30.73"/>
<polygon fill="blue" stroke="blue" points="319.9,-27.57 309.31,-27.47 317.52,-34.16 319.9,-27.57"/>
</g>
<!-- Setup -->
<g id="node18" class="node">
<title>Setup</title>
<ellipse fill="gray" stroke="blue" cx="373.06" cy="-18" rx="27" ry="18"/>
<text text-anchor="middle" x="373.06" y="-16.4" font-family="Times New Roman,serif" font-size="7.00" fill="blue">Setup</text>
</g>
<!-- Setup&#45;&gt;/new_goal_pos -->
<g id="edge19" class="edge">
<title>Setup&#45;&gt;/new_goal_pos</title>
<path fill="none" stroke="blue" d="M345.82,-18C343.57,-18 341.31,-18 339.06,-18"/>
<polygon fill="blue" stroke="blue" points="339.29,-14.5 329.29,-18 339.29,-21.5 339.29,-14.5"/>
</g>
<!-- /agent -->
<g id="node19" class="node">
<title>/agent</title>
<polygon fill="white" stroke="blue" points="104.06,-26.5 0.06,-26.5 0.06,-9.5 104.06,-9.5 104.06,-26.5"/>
<text text-anchor="middle" x="52.06" y="-16.1" font-family="Times New Roman,serif" font-size="8.00" fill="blue">/agent: {&#39;goal_pos&#39;: 10, ...</text>
</g>
<!-- Setup&#45;&gt;/agent -->
<g id="edge30" class="edge">
<title>Setup&#45;&gt;/agent</title>
<path fill="none" stroke="blue" d="M358.47,-33.57C350.11,-41.33 338.95,-49.9 327.06,-54 242.24,-83.24 135.21,-50.85 83.23,-31.05"/>
<polygon fill="blue" stroke="blue" points="84.71,-27.87 74.12,-27.47 82.15,-34.38 84.71,-27.87"/>
</g>
<!-- /agent&#45;&gt;Clear Road -->
<g id="edge24" class="edge">
<title>/agent&#45;&gt;Clear Road</title>
<path fill="none" stroke="green" d="M46.26,-26.87C28.12,-52.5 -24.09,-134.91 13.06,-187.2 32.74,-214.88 67.04,-229.1 99.02,-236.36"/>
<polygon fill="green" stroke="green" points="98.23,-239.77 108.73,-238.34 99.63,-232.91 98.23,-239.77"/>
</g>
<!-- /agent&#45;&gt;Vehicle Approaching -->
<g id="edge28" class="edge">
<title>/agent&#45;&gt;Vehicle Approaching</title>
<path fill="none" stroke="green" d="M58.29,-26.71C65.39,-35.5 77.38,-50.34 88.04,-63.53"/>
<polygon fill="green" stroke="green" points="85.17,-65.55 94.17,-71.13 90.61,-61.15 85.17,-65.55"/>
</g>
<!-- /agent&#45;&gt;Right Lane Free -->
<g id="edge23" class="edge">
<title>/agent&#45;&gt;Right Lane Free</title>
<path fill="none" stroke="green" d="M79.93,-26.91C119.95,-38.27 194.63,-59.46 246.96,-74.31"/>
<polygon fill="green" stroke="green" points="245.74,-77.6 256.32,-76.97 247.65,-70.87 245.74,-77.6"/>
</g>
<!-- /agent&#45;&gt;Lane Change Right -->
<g id="edge21" class="edge">
<title>/agent&#45;&gt;Lane Change Right</title>
<path fill="none" stroke="green" d="M104.49,-23.29C185.05,-30.57 334.89,-47.02 382.06,-72 411.71,-87.7 436.99,-117.09 452.95,-138.92"/>
<polygon fill="green" stroke="green" points="449.89,-140.67 458.53,-146.81 455.61,-136.63 449.89,-140.67"/>
</g>
<!-- /agent&#45;&gt;Free Ride -->
<g id="edge27" class="edge">
<title>/agent&#45;&gt;Free Ride</title>
<path fill="none" stroke="green" d="M104.46,-23.83C191.8,-32.33 363.2,-51.07 420.06,-72 479.22,-93.77 509.6,-92.41 540.06,-147.6 551.13,-167.65 549.46,-193.81 545.54,-213.76"/>
<polygon fill="green" stroke="green" points="542.13,-212.98 543.31,-223.51 548.95,-214.54 542.13,-212.98"/>
</g>
<!-- /agent&#45;&gt;Slow Vehicle -->
<g id="edge26" class="edge">
<title>/agent&#45;&gt;Slow Vehicle</title>
<path fill="none" stroke="green" d="M104.1,-23.84C239.1,-36.44 590.5,-69.42 596.06,-72 627.96,-86.8 655.7,-116.55 673.26,-138.71"/>
<polygon fill="green" stroke="green" points="670.35,-140.68 679.22,-146.48 675.91,-136.42 670.35,-140.68"/>
</g>
<!-- /agent&#45;&gt;Left Lane Free -->
<g id="edge29" class="edge">
<title>/agent&#45;&gt;Left Lane Free</title>
<path fill="none" stroke="green" d="M104.33,-23.71C247.49,-36.6 635.45,-71.58 637.06,-72 699.44,-88.35 766.6,-121.58 807.74,-143.93"/>
<polygon fill="green" stroke="green" points="805.84,-146.88 816.29,-148.63 809.21,-140.74 805.84,-146.88"/>
</g>
<!-- /agent&#45;&gt;Lane Change Left -->
<g id="edge22" class="edge">
<title>/agent&#45;&gt;Lane Change Left</title>
<path fill="none" stroke="green" d="M104.19,-23.86C142.14,-27.36 194.77,-32.12 241.06,-36 446.74,-53.25 501.64,-31.67 704.06,-72 791.84,-89.49 890.13,-125.23 946.5,-147.36"/>
<polygon fill="green" stroke="green" points="944.87,-150.48 955.45,-150.91 947.44,-143.97 944.87,-150.48"/>
</g>
<!-- /agent&#45;&gt;Follow -->
<g id="edge25" class="edge">
<title>/agent&#45;&gt;Follow</title>
<path fill="none" stroke="green" d="M104.18,-24.03C142.12,-27.61 194.75,-32.4 241.06,-36 352.83,-44.69 961.01,-14.62 1062.06,-147.6 1101.79,-199.87 1000.93,-224.98 927.86,-236.01"/>
<polygon fill="green" stroke="green" points="927.74,-232.49 918.35,-237.38 928.74,-239.42 927.74,-232.49"/>
</g>
</g>
</svg>
