<?xml version="1.0" encoding="UTF-8" standalone="no"?>
<!DOCTYPE svg PUBLIC "-//W3C//DTD SVG 1.1//EN"
 "http://www.w3.org/Graphics/SVG/1.1/DTD/svg11.dtd">
<!-- Generated by graphviz version 7.1.0 (20230121.1956)
 -->
<!-- Title: pastafarianism Pages: 1 -->
<svg width="718pt" height="404pt"
 viewBox="0.00 0.00 717.86 404.00" xmlns="http://www.w3.org/2000/svg" xmlns:xlink="http://www.w3.org/1999/xlink">
<g id="graph0" class="graph" transform="scale(1 1) rotate(0) translate(4 400)">
<title>pastafarianism</title>
<polygon fill="white" stroke="none" points="-4,4 -4,-400 713.86,-400 713.86,4 -4,4"/>
<!-- Root -->
<g id="node1" class="node">
<title>Root</title>
<polygon fill="cyan" stroke="black" points="398.12,-370.54 398.12,-385.46 382.3,-396 359.93,-396 344.12,-385.46 344.12,-370.54 359.93,-360 382.3,-360 398.12,-370.54"/>
<text text-anchor="middle" x="371.12" y="-375.8" font-family="Times New Roman,serif" font-size="9.00">Root</text>
</g>
<!-- Cruise -->
<g id="node2" class="node">
<title>Cruise</title>
<polygon fill="orange" stroke="black" points="361.12,-324 307.12,-324 307.12,-288 361.12,-288 361.12,-324"/>
<text text-anchor="middle" x="334.12" y="-303.8" font-family="Times New Roman,serif" font-size="9.00">Cruise</text>
</g>
<!-- Root&#45;&gt;Cruise -->
<g id="edge1" class="edge">
<title>Root&#45;&gt;Cruise</title>
<path fill="none" stroke="black" d="M361.97,-359.7C357.89,-351.98 352.99,-342.71 348.45,-334.11"/>
<polygon fill="black" stroke="black" points="351.63,-332.65 343.86,-325.44 345.44,-335.92 351.63,-332.65"/>
</g>
<!-- Follow -->
<g id="node11" class="node">
<title>Follow</title>
<polygon fill="cyan" stroke="black" points="489.12,-298.54 489.12,-313.46 473.3,-324 450.93,-324 435.12,-313.46 435.12,-298.54 450.93,-288 473.3,-288 489.12,-298.54"/>
<text text-anchor="middle" x="462.12" y="-303.8" font-family="Times New Roman,serif" font-size="9.00">Follow</text>
</g>
<!-- Root&#45;&gt;Follow -->
<g id="edge10" class="edge">
<title>Root&#45;&gt;Follow</title>
<path fill="none" stroke="black" d="M388.23,-363.83C401.62,-353.54 420.47,-339.04 435.77,-327.26"/>
<polygon fill="black" stroke="black" points="437.78,-330.14 443.57,-321.27 433.51,-324.59 437.78,-330.14"/>
</g>
<!-- Yield -->
<g id="node3" class="node">
<title>Yield</title>
<polygon fill="cyan" stroke="black" points="204.12,-226.54 204.12,-241.46 188.3,-252 165.93,-252 150.12,-241.46 150.12,-226.54 165.93,-216 188.3,-216 204.12,-226.54"/>
<text text-anchor="middle" x="177.12" y="-231.8" font-family="Times New Roman,serif" font-size="9.00">Yield</text>
</g>
<!-- Cruise&#45;&gt;Yield -->
<g id="edge2" class="edge">
<title>Cruise&#45;&gt;Yield</title>
<path fill="none" stroke="black" d="M306.77,-292.81C279.81,-280.79 238.61,-262.42 209.91,-249.62"/>
<polygon fill="black" stroke="black" points="211.52,-246.51 200.96,-245.63 208.67,-252.9 211.52,-246.51"/>
</g>
<!-- Clear Road -->
<g id="node9" class="node">
<title>Clear Road</title>
<ellipse fill="gray" stroke="black" cx="294.12" cy="-234" rx="32.16" ry="18"/>
<text text-anchor="middle" x="294.12" y="-231.8" font-family="Times New Roman,serif" font-size="9.00">Clear Road</text>
</g>
<!-- Cruise&#45;&gt;Clear Road -->
<g id="edge8" class="edge">
<title>Cruise&#45;&gt;Clear Road</title>
<path fill="none" stroke="black" d="M324.23,-287.7C319.71,-279.78 314.25,-270.23 309.23,-261.44"/>
<polygon fill="black" stroke="black" points="312.37,-259.88 304.37,-252.94 306.29,-263.36 312.37,-259.88"/>
</g>
<!-- Free Ride -->
<g id="node10" class="node">
<title>Free Ride</title>
<ellipse fill="gray" stroke="black" cx="374.12" cy="-234" rx="29.39" ry="18"/>
<text text-anchor="middle" x="374.12" y="-231.8" font-family="Times New Roman,serif" font-size="9.00">Free Ride</text>
</g>
<!-- Cruise&#45;&gt;Free Ride -->
<g id="edge9" class="edge">
<title>Cruise&#45;&gt;Free Ride</title>
<path fill="none" stroke="black" d="M344,-287.7C348.59,-279.67 354.15,-269.95 359.23,-261.05"/>
<polygon fill="black" stroke="black" points="362.22,-262.88 364.14,-252.46 356.14,-259.4 362.22,-262.88"/>
</g>
<!-- Inverter -->
<g id="node4" class="node">
<title>Inverter</title>
<ellipse fill="ghostwhite" stroke="black" cx="61.12" cy="-162" rx="27" ry="18"/>
<text text-anchor="middle" x="61.12" y="-159.8" font-family="Times New Roman,serif" font-size="9.00">Inverter</text>
</g>
<!-- Yield&#45;&gt;Inverter -->
<g id="edge3" class="edge">
<title>Yield&#45;&gt;Inverter</title>
<path fill="none" stroke="black" d="M157.44,-221.13C139,-210 111.2,-193.22 90.2,-180.55"/>
<polygon fill="black" stroke="black" points="92.17,-177.65 81.8,-175.48 88.55,-183.64 92.17,-177.65"/>
</g>
<!-- Inverter* -->
<g id="node6" class="node">
<title>Inverter*</title>
<ellipse fill="ghostwhite" stroke="black" cx="139.12" cy="-162" rx="28.74" ry="18"/>
<text text-anchor="middle" x="139.12" y="-159.8" font-family="Times New Roman,serif" font-size="9.00">Inverter*</text>
</g>
<!-- Yield&#45;&gt;Inverter* -->
<g id="edge5" class="edge">
<title>Yield&#45;&gt;Inverter*</title>
<path fill="none" stroke="black" d="M167.72,-215.7C163.36,-207.67 158.09,-197.95 153.26,-189.05"/>
<polygon fill="black" stroke="black" points="156.45,-187.59 148.6,-180.47 150.3,-190.93 156.45,-187.59"/>
</g>
<!-- Lane Change Right -->
<g id="node8" class="node">
<title>Lane Change Right</title>
<ellipse fill="gray" stroke="black" cx="234.12" cy="-162" rx="48.49" ry="18"/>
<text text-anchor="middle" x="234.12" y="-159.8" font-family="Times New Roman,serif" font-size="9.00">Lane Change Right</text>
</g>
<!-- Yield&#45;&gt;Lane Change Right -->
<g id="edge7" class="edge">
<title>Yield&#45;&gt;Lane Change Right</title>
<path fill="none" stroke="black" d="M190.34,-216.76C197.22,-208.32 205.78,-197.8 213.5,-188.31"/>
<polygon fill="black" stroke="black" points="216.02,-190.77 219.62,-180.81 210.59,-186.35 216.02,-190.77"/>
</g>
<!-- Vehicle Approaching -->
<g id="node5" class="node">
<title>Vehicle Approaching</title>
<ellipse fill="gray" stroke="black" cx="53.12" cy="-90" rx="53.23" ry="18"/>
<text text-anchor="middle" x="53.12" y="-87.8" font-family="Times New Roman,serif" font-size="9.00">Vehicle Approaching</text>
</g>
<!-- Inverter&#45;&gt;Vehicle Approaching -->
<g id="edge4" class="edge">
<title>Inverter&#45;&gt;Vehicle Approaching</title>
<path fill="none" stroke="black" d="M59.14,-143.7C58.31,-136.41 57.31,-127.73 56.38,-119.54"/>
<polygon fill="black" stroke="black" points="59.86,-119.15 55.24,-109.61 52.9,-119.94 59.86,-119.15"/>
</g>
<!-- Right Lane Free -->
<g id="node7" class="node">
<title>Right Lane Free</title>
<ellipse fill="gray" stroke="black" cx="167.12" cy="-90" rx="42.95" ry="18"/>
<text text-anchor="middle" x="167.12" y="-87.8" font-family="Times New Roman,serif" font-size="9.00">Right Lane Free</text>
</g>
<!-- Inverter*&#45;&gt;Right Lane Free -->
<g id="edge6" class="edge">
<title>Inverter*&#45;&gt;Right Lane Free</title>
<path fill="none" stroke="black" d="M145.89,-144.05C148.99,-136.32 152.73,-126.96 156.21,-118.27"/>
<polygon fill="black" stroke="black" points="159.37,-119.78 159.84,-109.19 152.87,-117.18 159.37,-119.78"/>
</g>
<!-- /new_goal_pos -->
<g id="node17" class="node">
<title>/new_goal_pos</title>
<polygon fill="white" stroke="blue" points="262.62,-26.5 185.62,-26.5 185.62,-9.5 262.62,-9.5 262.62,-26.5"/>
<text text-anchor="middle" x="224.12" y="-16.1" font-family="Times New Roman,serif" font-size="8.00" fill="blue">/new_goal_pos: 0</text>
</g>
<!-- Lane Change Right&#45;&gt;/new_goal_pos -->
<g id="edge19" class="edge">
<title>Lane Change Right&#45;&gt;/new_goal_pos</title>
<path fill="none" stroke="blue" d="M232.89,-143.59C231.01,-116.86 227.42,-65.92 225.47,-38.18"/>
<polygon fill="blue" stroke="blue" points="228.97,-38.17 224.78,-28.44 221.99,-38.66 228.97,-38.17"/>
</g>
<!-- Free Ride&#45;&gt;/new_goal_pos -->
<g id="edge18" class="edge">
<title>Free Ride&#45;&gt;/new_goal_pos</title>
<path fill="none" stroke="blue" d="M376.22,-215.62C379.1,-183.61 380.61,-114.71 347.12,-72 341.11,-64.34 290.37,-44.04 255.97,-30.9"/>
<polygon fill="blue" stroke="blue" points="257.46,-27.72 246.86,-27.45 254.97,-34.27 257.46,-27.72"/>
</g>
<!-- Overtake -->
<g id="node12" class="node">
<title>Overtake</title>
<polygon fill="orange" stroke="black" points="489.12,-252 435.12,-252 435.12,-216 489.12,-216 489.12,-252"/>
<text text-anchor="middle" x="462.12" y="-231.8" font-family="Times New Roman,serif" font-size="9.00">Overtake</text>
</g>
<!-- Follow&#45;&gt;Overtake -->
<g id="edge11" class="edge">
<title>Follow&#45;&gt;Overtake</title>
<path fill="none" stroke="black" d="M462.12,-287.7C462.12,-280.41 462.12,-271.73 462.12,-263.54"/>
<polygon fill="black" stroke="black" points="465.62,-263.62 462.12,-253.62 458.62,-263.62 465.62,-263.62"/>
</g>
<!-- Follow* -->
<g id="node16" class="node">
<title>Follow*</title>
<ellipse fill="gray" stroke="black" cx="534.12" cy="-234" rx="27.27" ry="18"/>
<text text-anchor="middle" x="534.12" y="-231.8" font-family="Times New Roman,serif" font-size="9.00">Follow*</text>
</g>
<!-- Follow&#45;&gt;Follow* -->
<g id="edge15" class="edge">
<title>Follow&#45;&gt;Follow*</title>
<path fill="none" stroke="black" d="M477.39,-290.15C487.25,-280.56 500.27,-267.9 511.35,-257.13"/>
<polygon fill="black" stroke="black" points="513.55,-259.88 518.28,-250.4 508.67,-254.86 513.55,-259.88"/>
</g>
<!-- Slow Vehicle -->
<g id="node13" class="node">
<title>Slow Vehicle</title>
<ellipse fill="gray" stroke="black" cx="450.12" cy="-162" rx="36.25" ry="18"/>
<text text-anchor="middle" x="450.12" y="-159.8" font-family="Times New Roman,serif" font-size="9.00">Slow Vehicle</text>
</g>
<!-- Overtake&#45;&gt;Slow Vehicle -->
<g id="edge12" class="edge">
<title>Overtake&#45;&gt;Slow Vehicle</title>
<path fill="none" stroke="black" d="M459.15,-215.7C457.89,-208.32 456.38,-199.52 454.96,-191.25"/>
<polygon fill="black" stroke="black" points="458.44,-190.86 453.3,-181.6 451.54,-192.04 458.44,-190.86"/>
</g>
<!-- Left Lane Free -->
<g id="node14" class="node">
<title>Left Lane Free</title>
<ellipse fill="gray" stroke="black" cx="544.12" cy="-162" rx="39.67" ry="18"/>
<text text-anchor="middle" x="544.12" y="-159.8" font-family="Times New Roman,serif" font-size="9.00">Left Lane Free</text>
</g>
<!-- Overtake&#45;&gt;Left Lane Free -->
<g id="edge13" class="edge">
<title>Overtake&#45;&gt;Left Lane Free</title>
<path fill="none" stroke="black" d="M482.39,-215.7C492.94,-206.69 505.98,-195.56 517.35,-185.85"/>
<polygon fill="black" stroke="black" points="519.55,-188.57 524.88,-179.42 515,-183.25 519.55,-188.57"/>
</g>
<!-- Lane Change Left -->
<g id="node15" class="node">
<title>Lane Change Left</title>
<ellipse fill="gray" stroke="black" cx="648.12" cy="-162" rx="46.38" ry="18"/>
<text text-anchor="middle" x="648.12" y="-159.8" font-family="Times New Roman,serif" font-size="9.00">Lane Change Left</text>
</g>
<!-- Overtake&#45;&gt;Lane Change Left -->
<g id="edge14" class="edge">
<title>Overtake&#45;&gt;Lane Change Left</title>
<path fill="none" stroke="black" d="M489.51,-219.72C492.39,-218.42 495.3,-217.16 498.12,-216 532.69,-201.77 572.65,-187.77 602.62,-177.73"/>
<polygon fill="black" stroke="black" points="603.36,-181.18 611.75,-174.7 601.15,-174.53 603.36,-181.18"/>
</g>
<!-- Lane Change Left&#45;&gt;/new_goal_pos -->
<g id="edge16" class="edge">
<title>Lane Change Left&#45;&gt;/new_goal_pos</title>
<path fill="none" stroke="blue" d="M632.09,-144.72C610.68,-124.07 570.62,-89.09 529.12,-72 422.47,-28.08 384.15,-63.39 272.12,-36 266.26,-34.57 260.11,-32.69 254.24,-30.71"/>
<polygon fill="blue" stroke="blue" points="255.48,-27.43 244.89,-27.36 253.13,-34.03 255.48,-27.43"/>
</g>
<!-- Follow*&#45;&gt;/new_goal_pos -->
<g id="edge17" class="edge">
<title>Follow*&#45;&gt;/new_goal_pos</title>
<path fill="none" stroke="blue" d="M560.88,-229.95C617.04,-222.4 739.14,-199.29 703.12,-144 595.32,21.46 464.08,-82.36 272.12,-36 266.25,-34.58 260.1,-32.71 254.24,-30.73"/>
<polygon fill="blue" stroke="blue" points="255.48,-27.46 244.88,-27.39 253.12,-34.05 255.48,-27.46"/>
</g>
<!-- Setup -->
<g id="node18" class="node">
<title>Setup</title>
<ellipse fill="gray" stroke="blue" cx="308.12" cy="-18" rx="27" ry="18"/>
<text text-anchor="middle" x="308.12" y="-16.4" font-family="Times New Roman,serif" font-size="7.00" fill="blue">Setup</text>
</g>
<!-- Setup&#45;&gt;/new_goal_pos -->
<g id="edge20" class="edge">
<title>Setup&#45;&gt;/new_goal_pos</title>
<path fill="none" stroke="blue" d="M280.88,-18C278.62,-18 276.37,-18 274.11,-18"/>
<polygon fill="blue" stroke="blue" points="274.35,-14.5 264.35,-18 274.35,-21.5 274.35,-14.5"/>
</g>
<!-- /agent -->
<g id="node19" class="node">
<title>/agent</title>
<polygon fill="white" stroke="blue" points="142.62,-26.5 39.62,-26.5 39.62,-9.5 142.62,-9.5 142.62,-26.5"/>
<text text-anchor="middle" x="91.12" y="-16.1" font-family="Times New Roman,serif" font-size="8.00" fill="blue">/agent: {&#39;goal_pos&#39;: [0, ...</text>
</g>
<!-- Setup&#45;&gt;/agent -->
<g id="edge30" class="edge">
<title>Setup&#45;&gt;/agent</title>
<path fill="none" stroke="blue" d="M293.52,-33.57C285.17,-41.33 274,-49.9 262.12,-54 212.17,-71.22 151.04,-48.35 117.06,-31.97"/>
<polygon fill="blue" stroke="blue" points="118.89,-28.97 108.38,-27.61 115.75,-35.23 118.89,-28.97"/>
</g>
<!-- /agent&#45;&gt;Vehicle Approaching -->
<g id="edge27" class="edge">
<title>/agent&#45;&gt;Vehicle Approaching</title>
<path fill="none" stroke="green" d="M86.9,-26.76C82.29,-35.25 74.65,-49.33 67.8,-61.95"/>
<polygon fill="green" stroke="green" points="64.73,-60.27 63.04,-70.72 70.88,-63.61 64.73,-60.27"/>
</g>
<!-- /agent&#45;&gt;Right Lane Free -->
<g id="edge24" class="edge">
<title>/agent&#45;&gt;Right Lane Free</title>
<path fill="none" stroke="green" d="M99.41,-26.64C109.48,-35.92 126.96,-52.01 141.63,-65.53"/>
<polygon fill="green" stroke="green" points="139.03,-67.89 148.76,-72.09 143.77,-62.74 139.03,-67.89"/>
</g>
<!-- /agent&#45;&gt;Lane Change Right -->
<g id="edge26" class="edge">
<title>/agent&#45;&gt;Lane Change Right</title>
<path fill="none" stroke="green" d="M138.83,-26.94C166.43,-34.05 199.49,-47.35 219.12,-72 232.55,-88.87 235.88,-113.33 236.08,-132.34"/>
<polygon fill="green" stroke="green" points="232.58,-132.05 235.88,-142.12 239.58,-132.19 232.58,-132.05"/>
</g>
<!-- /agent&#45;&gt;Clear Road -->
<g id="edge28" class="edge">
<title>/agent&#45;&gt;Clear Road</title>
<path fill="none" stroke="green" d="M134.97,-26.94C166.89,-34.41 209.83,-48.13 241.12,-72 272.09,-95.63 278.85,-107.02 291.12,-144 297.56,-163.43 298.14,-186.58 297.2,-204.4"/>
<polygon fill="green" stroke="green" points="293.72,-204.03 296.47,-214.26 300.7,-204.54 293.72,-204.03"/>
</g>
<!-- /agent&#45;&gt;Free Ride -->
<g id="edge25" class="edge">
<title>/agent&#45;&gt;Free Ride</title>
<path fill="none" stroke="green" d="M130.15,-26.95C176.57,-36.98 250.6,-54.99 273.12,-72 319.21,-106.82 349.49,-169.3 364.03,-205.33"/>
<polygon fill="green" stroke="green" points="360.76,-206.58 367.65,-214.62 367.28,-204.03 360.76,-206.58"/>
</g>
<!-- /agent&#45;&gt;Slow Vehicle -->
<g id="edge23" class="edge">
<title>/agent&#45;&gt;Slow Vehicle</title>
<path fill="none" stroke="green" d="M128.69,-26.97C143.45,-29.98 160.54,-33.32 176.12,-36 231.21,-45.49 383.09,-35.12 425.12,-72 442.18,-86.97 448.02,-112.57 449.83,-132.48"/>
<polygon fill="green" stroke="green" points="446.32,-132.42 450.4,-142.2 453.31,-132.01 446.32,-132.42"/>
</g>
<!-- /agent&#45;&gt;Left Lane Free -->
<g id="edge29" class="edge">
<title>/agent&#45;&gt;Left Lane Free</title>
<path fill="none" stroke="green" d="M128.26,-26.99C143.1,-30.03 160.38,-33.4 176.12,-36 297.29,-56.06 339.22,-19.2 450.12,-72 480.73,-86.58 507.92,-114.89 525.07,-135.68"/>
<polygon fill="green" stroke="green" points="522.3,-137.82 531.28,-143.45 527.77,-133.45 522.3,-137.82"/>
</g>
<!-- /agent&#45;&gt;Lane Change Left -->
<g id="edge21" class="edge">
<title>/agent&#45;&gt;Lane Change Left</title>
<path fill="none" stroke="green" d="M127.4,-26.94C142.42,-30.05 160.06,-33.47 176.12,-36 314,-57.71 355.24,-29.25 488.12,-72 536.44,-87.55 586.75,-118.34 617.75,-139.3"/>
<polygon fill="green" stroke="green" points="615.64,-142.09 625.86,-144.87 619.6,-136.32 615.64,-142.09"/>
</g>
<!-- /agent&#45;&gt;Follow* -->
<g id="edge22" class="edge">
<title>/agent&#45;&gt;Follow*</title>
<path fill="none" stroke="green" d="M126.96,-26.99C142.07,-30.14 159.89,-33.58 176.12,-36 336.91,-59.97 382.9,-30.64 540.12,-72 616.71,-92.15 659.88,-77.64 703.12,-144 736.89,-195.83 631.68,-219.39 572.13,-228.35"/>
<polygon fill="green" stroke="green" points="571.78,-224.86 562.38,-229.74 572.77,-231.79 571.78,-224.86"/>
</g>
</g>
</svg>
