<?xml version="1.0" encoding="UTF-8" standalone="no"?>
<!DOCTYPE svg PUBLIC "-//W3C//DTD SVG 1.1//EN"
 "http://www.w3.org/Graphics/SVG/1.1/DTD/svg11.dtd">
<!-- Generated by graphviz version 7.1.0 (20230121.1956)
 -->
<!-- Title: pastafarianism Pages: 1 -->
<svg width="589pt" height="188pt"
 viewBox="0.00 0.00 588.81 188.00" xmlns="http://www.w3.org/2000/svg" xmlns:xlink="http://www.w3.org/1999/xlink">
<g id="graph0" class="graph" transform="scale(1 1) rotate(0) translate(4 184)">
<title>pastafarianism</title>
<polygon fill="white" stroke="none" points="-4,4 -4,-184 584.81,-184 584.81,4 -4,4"/>
<!-- Blackboard Demo -->
<g id="node1" class="node">
<title>Blackboard Demo</title>
<polygon fill="orange" stroke="black" points="219.5,-180 138.5,-180 138.5,-144 219.5,-144 219.5,-180"/>
<text text-anchor="middle" x="179" y="-159.8" font-family="Times New Roman,serif" font-size="9.00">Blackboard Demo</text>
</g>
<!-- Set Nested -->
<g id="node2" class="node">
<title>Set Nested</title>
<ellipse fill="gray" stroke="black" cx="56" cy="-90" rx="32.16" ry="18"/>
<text text-anchor="middle" x="56" y="-87.8" font-family="Times New Roman,serif" font-size="9.00">Set Nested</text>
</g>
<!-- Blackboard Demo&#45;&gt;Set Nested -->
<g id="edge1" class="edge">
<title>Blackboard Demo&#45;&gt;Set Nested</title>
<path fill="none" stroke="black" d="M148.28,-143.52C129.79,-132.99 106.29,-119.62 87.64,-109.01"/>
<polygon fill="black" stroke="black" points="89.57,-106.08 79.15,-104.18 86.11,-112.16 89.57,-106.08"/>
</g>
<!-- Writer -->
<g id="node3" class="node">
<title>Writer</title>
<ellipse fill="gray" stroke="black" cx="133" cy="-90" rx="27" ry="18"/>
<text text-anchor="middle" x="133" y="-87.8" font-family="Times New Roman,serif" font-size="9.00">Writer</text>
</g>
<!-- Blackboard Demo&#45;&gt;Writer -->
<g id="edge2" class="edge">
<title>Blackboard Demo&#45;&gt;Writer</title>
<path fill="none" stroke="black" d="M167.63,-143.7C162.16,-135.37 155.5,-125.23 149.48,-116.08"/>
<polygon fill="black" stroke="black" points="152.55,-114.37 144.13,-107.94 146.7,-118.22 152.55,-114.37"/>
</g>
<!-- Check Nested Foo -->
<g id="node4" class="node">
<title>Check Nested Foo</title>
<ellipse fill="gray" stroke="black" cx="226" cy="-90" rx="47.84" ry="18"/>
<text text-anchor="middle" x="226" y="-87.8" font-family="Times New Roman,serif" font-size="9.00">Check Nested Foo</text>
</g>
<!-- Blackboard Demo&#45;&gt;Check Nested Foo -->
<g id="edge3" class="edge">
<title>Blackboard Demo&#45;&gt;Check Nested Foo</title>
<path fill="none" stroke="black" d="M190.62,-143.7C195.99,-135.7 202.49,-126.02 208.44,-117.15"/>
<polygon fill="black" stroke="black" points="211.33,-119.13 214,-108.88 205.52,-115.23 211.33,-119.13"/>
</g>
<!-- ParamsAndState -->
<g id="node5" class="node">
<title>ParamsAndState</title>
<ellipse fill="gray" stroke="black" cx="336" cy="-90" rx="44.41" ry="18"/>
<text text-anchor="middle" x="336" y="-87.8" font-family="Times New Roman,serif" font-size="9.00">ParamsAndState</text>
</g>
<!-- Blackboard Demo&#45;&gt;ParamsAndState -->
<g id="edge4" class="edge">
<title>Blackboard Demo&#45;&gt;ParamsAndState</title>
<path fill="none" stroke="black" d="M218.21,-143.52C242.16,-132.84 272.67,-119.24 296.64,-108.55"/>
<polygon fill="black" stroke="black" points="298.06,-111.75 305.76,-104.48 295.21,-105.36 298.06,-111.75"/>
</g>
<!-- /nested -->
<g id="node9" class="node">
<title>/nested</title>
<polygon fill="white" stroke="blue" points="48,-26.5 0,-26.5 0,-9.5 48,-9.5 48,-26.5"/>
<text text-anchor="middle" x="24" y="-16.1" font-family="Times New Roman,serif" font-size="8.00" fill="blue">/nested: &#45;</text>
</g>
<!-- Set Nested&#45;&gt;/nested -->
<g id="edge9" class="edge">
<title>Set Nested&#45;&gt;/nested</title>
<path fill="none" stroke="blue" d="M48.25,-72.05C43.42,-61.48 37.2,-47.87 32.27,-37.08"/>
<polygon fill="blue" stroke="blue" points="35.52,-35.78 28.18,-28.14 29.15,-38.69 35.52,-35.78"/>
</g>
<!-- /spaghetti -->
<g id="node10" class="node">
<title>/spaghetti</title>
<polygon fill="white" stroke="blue" points="143,-26.5 85,-26.5 85,-9.5 143,-9.5 143,-26.5"/>
<text text-anchor="middle" x="114" y="-16.1" font-family="Times New Roman,serif" font-size="8.00" fill="blue">/spaghetti: &#45;</text>
</g>
<!-- Writer&#45;&gt;/spaghetti -->
<g id="edge10" class="edge">
<title>Writer&#45;&gt;/spaghetti</title>
<path fill="none" stroke="blue" d="M128.4,-72.05C125.59,-61.7 121.99,-48.45 119.1,-37.77"/>
<polygon fill="blue" stroke="blue" points="122.5,-36.96 116.5,-28.22 115.75,-38.79 122.5,-36.96"/>
</g>
<!-- /state/current_speed -->
<g id="node8" class="node">
<title>/state/current_speed</title>
<polygon fill="white" stroke="blue" points="499.5,-26.5 406.5,-26.5 406.5,-9.5 499.5,-9.5 499.5,-26.5"/>
<text text-anchor="middle" x="453" y="-16.1" font-family="Times New Roman,serif" font-size="8.00" fill="blue">/state/current_speed: &#45;</text>
</g>
<!-- ParamsAndState&#45;&gt;/state/current_speed -->
<g id="edge7" class="edge">
<title>ParamsAndState&#45;&gt;/state/current_speed</title>
<path fill="none" stroke="blue" d="M360.24,-74.5C380.76,-62.22 409.96,-44.75 430.09,-32.7"/>
<polygon fill="blue" stroke="blue" points="431.62,-35.87 438.4,-27.73 428.02,-29.87 431.62,-35.87"/>
</g>
<!-- /parameters/default_speed -->
<g id="node6" class="node">
<title>/parameters/default_speed</title>
<polygon fill="white" stroke="blue" points="388,-26.5 262,-26.5 262,-9.5 388,-9.5 388,-26.5"/>
<text text-anchor="middle" x="325" y="-16.1" font-family="Times New Roman,serif" font-size="8.00" fill="blue">/parameters/default_speed: 30.0</text>
</g>
<!-- /parameters/default_speed&#45;&gt;ParamsAndState -->
<g id="edge5" class="edge">
<title>/parameters/default_speed&#45;&gt;ParamsAndState</title>
<path fill="none" stroke="green" d="M326.21,-26.68C327.49,-34.83 329.59,-48.2 331.52,-60.47"/>
<polygon fill="green" stroke="green" points="328.04,-60.87 333.05,-70.2 334.95,-59.78 328.04,-60.87"/>
</g>
<!-- Configuration -->
<g id="node7" class="node">
<title>Configuration</title>
<ellipse fill="gray" stroke="blue" cx="549" cy="-18" rx="31.63" ry="18"/>
<text text-anchor="middle" x="549" y="-16.4" font-family="Times New Roman,serif" font-size="7.00" fill="blue">Configuration</text>
</g>
<!-- Configuration&#45;&gt;/parameters/default_speed -->
<g id="edge6" class="edge">
<title>Configuration&#45;&gt;/parameters/default_speed</title>
<path fill="none" stroke="deepskyblue" d="M532.84,-33.97C523.94,-41.62 512.24,-49.99 500,-54 460.72,-66.88 447.45,-62.49 407,-54 386.97,-49.8 365.86,-40.4 350.08,-32.26"/>
<polygon fill="deepskyblue" stroke="deepskyblue" points="351.88,-29.25 341.41,-27.62 348.57,-35.43 351.88,-29.25"/>
</g>
<!-- /dude -->
<g id="node11" class="node">
<title>/dude</title>
<polygon fill="white" stroke="blue" points="234,-26.5 182,-26.5 182,-9.5 234,-9.5 234,-26.5"/>
<text text-anchor="middle" x="208" y="-16.1" font-family="Times New Roman,serif" font-size="8.00" fill="blue">/dude: Bob</text>
</g>
<!-- Configuration&#45;&gt;/dude -->
<g id="edge12" class="edge">
<title>Configuration&#45;&gt;/dude</title>
<path fill="none" stroke="blue" d="M532.84,-33.97C523.94,-41.62 512.24,-49.99 500,-54 449.74,-70.48 312.62,-69.33 262,-54 248.9,-50.03 236.07,-41.72 226.2,-34.08"/>
<polygon fill="blue" stroke="blue" points="228.54,-31.48 218.6,-27.82 224.09,-36.88 228.54,-31.48"/>
</g>
<!-- /nested&#45;&gt;Check Nested Foo -->
<g id="edge8" class="edge">
<title>/nested&#45;&gt;Check Nested Foo</title>
<path fill="none" stroke="green" d="M46.8,-26.9C79.25,-38.15 139.44,-59.01 181.06,-73.43"/>
<polygon fill="green" stroke="green" points="179.71,-76.66 190.3,-76.63 182,-70.05 179.71,-76.66"/>
</g>
<!-- /dude&#45;&gt;Writer -->
<g id="edge11" class="edge">
<title>/dude&#45;&gt;Writer</title>
<path fill="none" stroke="green" d="M199.8,-26.65C189.45,-36.31 171.22,-53.33 156.41,-67.15"/>
<polygon fill="green" stroke="green" points="154.21,-64.42 149.28,-73.8 158.98,-69.54 154.21,-64.42"/>
</g>
</g>
</svg>
